<svg xmlns="http://www.w3.org/2000/svg" xmlns:xlink="http://www.w3.org/1999/xlink" version="1.1" width="256" height="256" viewBox="0 0 256 256" xml:space="preserve">
<desc>Created with Fabric.js 1.7.22</desc>
<defs>
</defs>
<g transform="translate(128 128) scale(0.72 0.72)" style="">
	<g style="stroke: none; stroke-width: 0; stroke-dasharray: none; stroke-linecap: butt; stroke-linejoin: miter; stroke-miterlimit: 10; fill: rgb(241,60,110); fill-rule: nonzero; opacity: 1;" transform="translate(-175.05 -175.05000000000004) scale(3.89 3.89)" >
	<path d="M 45 90 C 20.187 90 0 69.814 0 45 C 0 20.187 20.187 0 45 0 c 24.814 0 45 20.187 45 45 C 90 69.814 69.814 90 45 90 z M 45 5.625 C 23.289 5.625 5.625 23.289 5.625 45 c 0 21.712 17.664 39.375 39.375 39.375 c 21.712 0 39.375 -17.663 39.375 -39.375 C 84.375 23.289 66.712 5.625 45 5.625 z" style="stroke: none; stroke-width: 1; stroke-dasharray: none; stroke-linecap: butt; stroke-linejoin: miter; stroke-miterlimit: 10; fill: rgb(241,60,110); fill-rule: nonzero; opacity: 1;" transform=" matrix(1 0 0 1 0 0) " stroke-linecap="round" />
</g>
	<g style="stroke: none; stroke-width: 0; stroke-dasharray: none; stroke-linecap: butt; stroke-linejoin: miter; stroke-miterlimit: 10; fill: none; fill-rule: nonzero; opacity: 1;" transform="translate(-94.05 -94.05000000000003) scale(2.09 2.09)" >
	<path d="M 62.679 90 H 27.322 C 12.256 90 0 77.744 0 62.679 V 27.322 C 0 12.256 12.256 0 27.322 0 h 35.357 C 77.744 0 90 12.256 90 27.322 v 35.357 C 90 77.744 77.744 90 62.679 90 z M 27.322 5 C 15.014 5 5 15.014 5 27.322 v 35.357 C 5 74.986 15.014 85 27.322 85 h 35.357 C 74.986 85 85 74.986 85 62.679 V 27.322 C 85 15.014 74.986 5 62.679 5 H 27.322 z" style="stroke: none; stroke-width: 1; stroke-dasharray: none; stroke-linecap: butt; stroke-linejoin: miter; stroke-miterlimit: 10; fill: rgb(241,60,110); fill-rule: nonzero; opacity: 1;" transform=" matrix(1 0 0 1 0 0) " stroke-linecap="round" />
	<path d="M 45.261 69.999 c -13.641 0 -24.738 -11.098 -24.738 -24.738 c 0 -13.641 11.098 -24.738 24.738 -24.738 C 58.902 20.523 70 31.621 70 45.261 C 70 58.901 58.902 69.999 45.261 69.999 z M 45.261 25.523 c -10.884 0 -19.738 8.854 -19.738 19.738 c 0 10.883 8.854 19.738 19.738 19.738 C 56.146 64.999 65 56.145 65 45.261 C 65 34.377 56.146 25.523 45.261 25.523 z" style="stroke: none; stroke-width: 1; stroke-dasharray: none; stroke-linecap: butt; stroke-linejoin: miter; stroke-miterlimit: 10; fill: rgb(241,60,110); fill-rule: nonzero; opacity: 1;" transform=" matrix(1 0 0 1 0 0) " stroke-linecap="round" />
	<circle cx="71.175" cy="19.335" r="5.015" style="stroke: none; stroke-width: 1; stroke-dasharray: none; stroke-linecap: butt; stroke-linejoin: miter; stroke-miterlimit: 10; fill: rgb(241,60,110); fill-rule: nonzero; opacity: 1;" transform="  matrix(1 0 0 1 0 0) "/>
</g>
</g>
</svg>